<?xml version="1.0"?>
<svg width="800" height="600" xmlns="http://www.w3.org/2000/svg" xmlns:svg="http://www.w3.org/2000/svg">
 <!-- 窗口背景 -->
 <!-- 标题栏 -->
 <!-- 主要内容区域 -->
 <!-- 默认设置说明 -->
 <!-- 文件选择区域 -->
 <!-- 音频降噪选项 -->
 <!-- 进度条 -->
 <!-- 处理按钮 -->
 <!-- 处理日志区域 -->
 <g class="layer">
  <title>Layer 1</title>
  <rect fill="#f0f0f0" height="537" id="svg_1" rx="10" stroke="#666" stroke-width="2" width="700" x="50" y="50"/>
  <rect fill="#e0e0e0" height="40" id="svg_2" rx="10" stroke="#666" stroke-width="2" width="700" x="50" y="50"/>
  <text fill="#333" font-family="Arial" font-size="16" id="svg_3" x="70" y="75">Echo智剪</text>
  <rect fill="#fff" height="413" id="svg_4" rx="5" stroke="#ddd" transform="matrix(1 0 0 1 0 0)" width="660" x="70" y="110"/>
  <text fill="#666" font-family="Arial" font-size="14" id="svg_5" x="90" y="140">默认设置：</text>
  <text fill="#666" font-family="Arial" font-size="12" id="svg_6" x="90" y="170">• 视频文件：自动加载应用程序同目录下video文件夹中的MP4文件</text>
  <text fill="#666" font-family="Arial" font-size="12" id="svg_7" x="90" y="190">• 切割点文件：自动加载应用程序同目录下video文件夹中的视频切割点.txt文件</text>
  <text fill="#666" font-family="Arial" font-size="12" id="svg_8" x="90" y="210">• 输出目录：自动设置为应用程序同目录下video/output文件夹（如不存在将自动创建）</text>
  <text fill="#333" font-family="Arial" font-size="14" id="svg_9" x="90" y="250">视频文件：</text>
  <rect fill="#fff" height="30" id="svg_10" rx="5" stroke="#999" width="500" x="90" y="260"/>
  <text fill="#999" font-family="Arial" font-size="12" id="svg_11" x="100" y="280">未选择视频文件</text>
  <rect fill="#4a90e2" height="30" id="svg_12" rx="5" width="110" x="600" y="260"/>
  <text fill="#fff" font-family="Arial" font-size="12" id="svg_13" x="620" y="280">选择视频文件</text>
  <text fill="#333" font-family="Arial" font-size="14" id="svg_14" x="90" y="310">切割点文件：</text>
  <rect fill="#fff" height="30" id="svg_15" rx="5" stroke="#999" width="500" x="90" y="320"/>
  <text fill="#999" font-family="Arial" font-size="12" id="svg_16" x="100" y="340">未选择切割点文件</text>
  <rect fill="#4a90e2" height="30" id="svg_17" rx="5" width="110" x="600" y="320"/>
  <text fill="#fff" font-family="Arial" font-size="12" id="svg_18" x="620" y="340">选择切割点文件</text>
  <text fill="#333" font-family="Arial" font-size="14" id="svg_19" x="90" y="370">输出目录：</text>
  <rect fill="#fff" height="30" id="svg_20" rx="5" stroke="#999" width="500" x="90" y="380"/>
  <text fill="#666" font-family="Arial" font-size="12" id="svg_21" x="100" y="400">D:\AIDev\splitVideo\dist\video\output</text>
  <rect fill="#4a90e2" height="30" id="svg_22" rx="5" width="110" x="600" y="380"/>
  <text fill="#fff" font-family="Arial" font-size="12" id="svg_23" x="620" y="400">选择输出目录</text>
  <rect fill="#fff" height="20" id="svg_24" rx="3" stroke="#999" width="20" x="90" y="430"/>
  <path d="m92,440l6,-6l10,10" fill="none" id="svg_25" stroke="#4a90e2" stroke-width="2"/>
  <text fill="#333" font-family="Arial" font-size="14" id="svg_26" x="120" y="445">应用音频降噪处理</text>
  <text fill="#333" font-family="Arial" font-size="14" id="svg_27" x="90" y="470">处理进度：</text>
  <rect fill="#f5f5f5" height="20" id="svg_28" rx="10" stroke="#ddd" transform="matrix(1 0 0 1 0 0)" width="620" x="90" y="480"/>
  <rect fill="#4a90e2" height="20" id="svg_29" rx="10" width="0" x="90" y="480"/>
  <text fill="#666" font-family="Arial" font-size="12" id="svg_30" text-anchor="middle" x="400" y="494">0%</text>
  <g id="svg_41" transform="matrix(1 0 0 1 0 0)">
   <rect fill="#4a90e2" height="35" id="svg_31" rx="5" width="100" x="108" y="533"/>
   <text fill="#fff" font-family="Arial" font-size="14" id="svg_32" x="131" y="555">开始处理</text>
  </g>
  <g id="svg_42" transform="matrix(1 0 0 1 0 0)">
   <rect fill="#999" height="35" id="svg_33" rx="5" width="100" x="227" y="533"/>
   <text fill="#fff" font-family="Arial" font-size="14" id="svg_34" x="257" y="555">取消</text>
  </g>
  <g id="svg_43" transform="matrix(1 0 0 1 0 0)">
   <rect fill="#999" height="35" id="svg_35" rx="5" width="120" x="348" y="533"/>
   <text fill="#fff" font-family="Arial" font-size="14" id="svg_36" x="363" y="555">打开输出目录</text>
  </g>
 </g>
</svg>