<?xml version="1.0" encoding="UTF-8"?>
<svg width="800" height="400" xmlns="http://www.w3.org/2000/svg">
    <!-- 背景 -->
    <rect width="800" height="400" fill="#ffffff"/>
    
    <!-- 标题 -->
    <text x="400" y="40" font-size="20" text-anchor="middle" fill="#333333">视频处理流程</text>
    
    <!-- 流程图主体 -->
    <g transform="translate(50,80)">
        <!-- 输入阶段 -->
        <rect x="0" y="0" width="120" height="60" fill="#e3f2fd" stroke="#2196f3" rx="5"/>
        <text x="60" y="25" font-size="14" text-anchor="middle">输入文件</text>
        <text x="60" y="45" font-size="12" text-anchor="middle">视频 + 切割点</text>
        
        <!-- 箭头1 -->
        <path d="M120,30 L180,30" stroke="#666" stroke-width="2" marker-end="url(#arrow)"/>
        
        <!-- 预处理阶段 -->
        <rect x="180" y="0" width="120" height="60" fill="#f3e5f5" stroke="#9c27b0" rx="5"/>
        <text x="240" y="25" font-size="14" text-anchor="middle">预处理</text>
        <text x="240" y="45" font-size="12" text-anchor="middle">解析切割点信息</text>
        
        <!-- 箭头2 -->
        <path d="M300,30 L360,30" stroke="#666" stroke-width="2" marker-end="url(#arrow)"/>
        
        <!-- 处理阶段 -->
        <rect x="360" y="0" width="120" height="60" fill="#e8f5e9" stroke="#4caf50" rx="5"/>
        <text x="420" y="25" font-size="14" text-anchor="middle">FFmpeg处理</text>
        <text x="420" y="45" font-size="12" text-anchor="middle">视频切割</text>
        
        <!-- 箭头3 -->
        <path d="M480,30 L540,30" stroke="#666" stroke-width="2" marker-end="url(#arrow)"/>
        
        <!-- 输出阶段 -->
        <rect x="540" y="0" width="120" height="60" fill="#fff3e0" stroke="#ff9800" rx="5"/>
        <text x="600" y="25" font-size="14" text-anchor="middle">输出文件</text>
        <text x="600" y="45" font-size="12" text-anchor="middle">分段视频</text>
        
        <!-- 处理细节 -->
        <g transform="translate(0,120)">
            <!-- 预处理细节 -->
            <rect x="180" y="0" width="120" height="120" fill="#f3e5f5" fill-opacity="0.3" stroke="#9c27b0" stroke-dasharray="5,5" rx="5"/>
            <text x="240" y="20" font-size="12" text-anchor="middle">预处理步骤：</text>
            <text x="190" y="45" font-size="11">1. 读取切割点文件</text>
            <text x="190" y="65" font-size="11">2. 解析时间格式</text>
            <text x="190" y="85" font-size="11">3. 验证时间有效性</text>
            <text x="190" y="105" font-size="11">4. 准备输出目录</text>
            
            <!-- FFmpeg处理细节 -->
            <rect x="360" y="0" width="120" height="120" fill="#e8f5e9" fill-opacity="0.3" stroke="#4caf50" stroke-dasharray="5,5" rx="5"/>
            <text x="420" y="20" font-size="12" text-anchor="middle">处理步骤：</text>
            <text x="370" y="45" font-size="11">1. 设置编码参数</text>
            <text x="370" y="65" font-size="11">2. 执行切割命令</text>
            <text x="370" y="85" font-size="11">3. 音频降噪处理</text>
            <text x="370" y="105" font-size="11">4. 进度监控</text>
        </g>
    </g>
    
    <!-- 箭头定义 -->
    <defs>
        <marker id="arrow" markerWidth="10" markerHeight="10" refX="9" refY="5" orient="auto">
            <path d="M0,0 L10,5 L0,10 L2,5 Z" fill="#666"/>
        </marker>
    </defs>
</svg>